<svg width="21" height="21" viewBox="0 0 21 21" fill="none" xmlns="http://www.w3.org/2000/svg">
<path d="M14.9514 0.126753H6.22228C2.43061 0.126753 0.170197 2.38717 0.170197 6.17884V14.8976C0.170197 18.6997 2.43061 20.9601 6.22228 20.9601H14.941C18.7327 20.9601 20.9931 18.6997 20.9931 14.908V6.17884C21.0035 2.38717 18.7431 0.126753 14.9514 0.126753ZM10.5869 14.5851C8.3577 14.5851 6.5452 12.7726 6.5452 10.5434C6.5452 8.31425 8.3577 6.50175 10.5869 6.50175C12.816 6.50175 14.6285 8.31425 14.6285 10.5434C14.6285 12.7726 12.816 14.5851 10.5869 14.5851ZM16.7535 5.21009C16.7014 5.33509 16.6285 5.44967 16.5348 5.55384C16.4306 5.64759 16.316 5.7205 16.191 5.77259C16.066 5.82467 15.9306 5.85592 15.7952 5.85592C15.5139 5.85592 15.2535 5.75175 15.0556 5.55384C14.9619 5.44967 14.8889 5.33509 14.8369 5.21009C14.7848 5.08509 14.7535 4.94967 14.7535 4.81425C14.7535 4.67884 14.7848 4.54342 14.8369 4.41842C14.8889 4.283 14.9619 4.17884 15.0556 4.07467C15.2952 3.83509 15.6598 3.7205 15.9931 3.79342C16.066 3.80384 16.1285 3.82467 16.191 3.85592C16.2535 3.87675 16.316 3.908 16.3785 3.94967C16.4306 3.98092 16.4827 4.033 16.5348 4.07467C16.6285 4.17884 16.7014 4.283 16.7535 4.41842C16.8056 4.54342 16.8369 4.67884 16.8369 4.81425C16.8369 4.94967 16.8056 5.08509 16.7535 5.21009Z" fill="#0010A4"/>
</svg>
