<svg width="22" height="23" viewBox="0 0 22 23" fill="none" xmlns="http://www.w3.org/2000/svg">
<path d="M0.125214 3.49156V19.5845C0.125214 21.1035 1.32058 22.2989 2.8396 22.2989H18.9326C19.676 22.2989 20.3864 21.9432 20.8394 21.4913C21.3243 21.0063 21.647 20.3921 21.647 19.5845V3.49156C21.647 1.97253 20.4516 0.77717 18.9326 0.77717H2.8396C2.03201 0.77717 1.41778 1.10083 0.932809 1.58477C0.479894 2.03768 0.125214 2.74807 0.125214 3.49156ZM3.034 5.62378C3.034 4.58972 3.87469 3.68493 4.90874 3.68493C5.97485 3.68493 6.84759 4.58972 6.84759 5.62378C6.84759 6.68988 5.97485 7.53057 4.90874 7.53057C3.87469 7.53057 3.034 6.68988 3.034 5.62378ZM8.23632 18.9051V9.04959C8.23632 8.82313 8.46278 8.62977 8.62409 8.62977H11.3705C11.7583 8.62977 11.7583 9.08268 11.7583 9.37325C12.5338 8.59771 13.5358 8.40331 14.5699 8.40331C17.0909 8.40331 18.7061 9.59867 18.7061 12.249V18.9062C18.7061 19.1326 18.5117 19.326 18.3183 19.326H15.4747C15.2482 19.326 15.0869 19.0995 15.0869 18.9062V12.8952C15.0869 11.8932 14.7964 11.3442 13.6651 11.3442C12.2433 11.3442 11.8876 12.281 11.8876 13.5415V18.9062C11.8876 19.1326 11.6611 19.326 11.4346 19.326H8.62306C8.46175 19.326 8.23529 19.0995 8.23529 18.9062L8.23632 18.9051ZM3.09812 18.9051V9.04959C3.09812 8.82313 3.32457 8.62977 3.48588 8.62977H6.29747C6.55599 8.62977 6.7173 8.79108 6.7173 9.04959V18.9051C6.7173 19.1316 6.5229 19.325 6.29747 19.325H3.48588C3.29148 19.325 3.09812 19.0985 3.09812 18.9051Z" fill="#0010A4"/>
</svg>
