<svg width="26" height="21" viewBox="0 0 26 21" fill="none" xmlns="http://www.w3.org/2000/svg">
<path fill-rule="evenodd" clip-rule="evenodd" d="M7.94935 20.5432C17.3831 20.5432 22.5431 12.8476 22.5431 6.17488C22.5431 5.95581 22.5431 5.7384 22.5281 5.5218C23.5319 4.808 24.3981 3.92174 25.0869 2.90766C24.1519 3.31625 23.1581 3.58421 22.1419 3.70234C23.2119 3.07101 24.0131 2.07914 24.3969 0.908763C23.3894 1.49703 22.2881 1.9122 21.1394 2.13496C19.1969 0.101872 15.9481 0.00336862 13.8819 1.91584C12.5506 3.14898 11.9844 4.98757 12.3981 6.74128C8.27435 6.537 4.43185 4.61963 1.82685 1.4654C0.465603 3.77292 1.16185 6.72378 3.4156 8.20552C2.59935 8.18213 1.8006 7.96576 1.08685 7.57441V7.6385C1.0881 10.042 2.80935 12.1116 5.20185 12.5878C4.44685 12.7909 3.65435 12.8204 2.88685 12.6739C3.5581 14.7316 5.48435 16.141 7.6781 16.1816C5.86185 17.587 3.6181 18.3502 1.3081 18.3477C0.900603 18.3465 0.493103 18.3231 0.086853 18.2751C2.4331 19.7568 5.16185 20.5432 7.94935 20.5395" fill="#0010A4"/>
</svg>
