<svg width="29" height="21" viewBox="0 0 29 21" fill="none" xmlns="http://www.w3.org/2000/svg">
<path fill-rule="evenodd" clip-rule="evenodd" d="M11.4989 14.2379V6.22098C14.3449 7.56017 16.5491 8.85385 19.1561 10.2486C17.0059 11.441 14.3449 12.779 11.4989 14.2379ZM27.3597 2.23382C26.8688 1.58702 26.0321 1.08354 25.1413 0.916856C22.5229 0.419642 6.18826 0.418228 3.57135 0.916856C2.85701 1.05077 2.2209 1.37446 1.67447 1.87737C-0.62795 4.01437 0.093519 15.4744 0.648492 17.3308C0.881863 18.1343 1.18355 18.7138 1.5635 19.0942C2.05301 19.5971 2.72323 19.9433 3.49308 20.0986C5.64893 20.5446 16.7555 20.7939 25.0957 20.1656C25.8641 20.0317 26.5443 19.6743 27.0808 19.15C29.2096 17.0215 29.0645 4.91789 27.3597 2.23382Z" fill="#0010A4"/>
</svg>
