<svg width="63" height="63" viewBox="0 0 63 63" fill="none" xmlns="http://www.w3.org/2000/svg">
<g filter="url(#filter0_i_865_96)">
<circle cx="31.5" cy="31.5" r="31.5" fill="#FAF0B1"/>
</g>
<path d="M23.4288 22.5447V39.4742L15.1633 31.0094L23.4288 22.5447ZM11.7153 29.2313C10.7616 30.208 10.7616 31.7858 11.7153 32.7625L22.9397 44.2575C24.4559 45.8353 27.0969 44.7333 27.0969 42.5045V19.5144C27.0969 17.2855 24.4559 16.1586 22.9153 17.7363L11.7153 29.2313ZM36.8786 19.5144V42.4794C36.8786 44.7083 39.5196 45.8353 41.0603 44.2575L52.2847 32.7625C53.2384 31.7858 53.2384 30.208 52.2847 29.2313L41.0603 17.7363C39.5196 16.1836 36.8786 17.2855 36.8786 19.5144Z" fill="#05A798"/>
<defs>
<filter id="filter0_i_865_96" x="0" y="0" width="67" height="69" filterUnits="userSpaceOnUse" color-interpolation-filters="sRGB">
<feFlood flood-opacity="0" result="BackgroundImageFix"/>
<feBlend mode="normal" in="SourceGraphic" in2="BackgroundImageFix" result="shape"/>
<feColorMatrix in="SourceAlpha" type="matrix" values="0 0 0 0 0 0 0 0 0 0 0 0 0 0 0 0 0 0 127 0" result="hardAlpha"/>
<feOffset dx="4" dy="6"/>
<feGaussianBlur stdDeviation="25"/>
<feComposite in2="hardAlpha" operator="arithmetic" k2="-1" k3="1"/>
<feColorMatrix type="matrix" values="0 0 0 0 0.713292 0 0 0 0 0.95 0 0 0 0 0.0395833 0 0 0 0.25 0"/>
<feBlend mode="normal" in2="shape" result="effect1_innerShadow_865_96"/>
</filter>
</defs>
</svg>
