<svg width="63" height="63" viewBox="0 0 63 63" fill="none" xmlns="http://www.w3.org/2000/svg">
<g filter="url(#filter0_i_864_100)">
<circle cx="31.5" cy="31.5" r="31.5" fill="#FAF0B1"/>
</g>
<path d="M40.5712 22.5447V39.4742L48.8367 31.0094L40.5712 22.5447ZM52.2847 29.2313C53.2384 30.208 53.2384 31.7858 52.2847 32.7625L41.0603 44.2575C39.5441 45.8353 36.9031 44.7333 36.9031 42.5045V19.5144C36.9031 17.2855 39.5441 16.1586 41.0847 17.7363L52.2847 29.2313ZM27.1214 19.5144V42.4794C27.1214 44.7083 24.4804 45.8353 22.9397 44.2575L11.7153 32.7625C10.7616 31.7858 10.7616 30.208 11.7153 29.2313L22.9397 17.7363C24.4804 16.1836 27.1214 17.2855 27.1214 19.5144Z" fill="#05A798"/>
<defs>
<filter id="filter0_i_864_100" x="0" y="0" width="67" height="69" filterUnits="userSpaceOnUse" color-interpolation-filters="sRGB">
<feFlood flood-opacity="0" result="BackgroundImageFix"/>
<feBlend mode="normal" in="SourceGraphic" in2="BackgroundImageFix" result="shape"/>
<feColorMatrix in="SourceAlpha" type="matrix" values="0 0 0 0 0 0 0 0 0 0 0 0 0 0 0 0 0 0 127 0" result="hardAlpha"/>
<feOffset dx="4" dy="6"/>
<feGaussianBlur stdDeviation="25"/>
<feComposite in2="hardAlpha" operator="arithmetic" k2="-1" k3="1"/>
<feColorMatrix type="matrix" values="0 0 0 0 0.713292 0 0 0 0 0.95 0 0 0 0 0.0395833 0 0 0 0.25 0"/>
<feBlend mode="normal" in2="shape" result="effect1_innerShadow_864_100"/>
</filter>
</defs>
</svg>
